<?xml version="1.0" encoding="UTF-8" standalone="no"?>
<svg
   xmlns:dc="http://purl.org/dc/elements/1.1/"
   xmlns:cc="http://creativecommons.org/ns#"
   xmlns:rdf="http://www.w3.org/1999/02/22-rdf-syntax-ns#"
   xmlns:svg="http://www.w3.org/2000/svg"
   xmlns="http://www.w3.org/2000/svg"
   xmlns:sodipodi="http://sodipodi.sourceforge.net/DTD/sodipodi-0.dtd"
   xmlns:inkscape="http://www.inkscape.org/namespaces/inkscape"
   width="24"
   height="24"
   viewBox="0 0 24 24"
   version="1.1"
   id="svg6"
   sodipodi:docname="arrow.svg"
   inkscape:version="0.92.3 (unknown)">
  <metadata
     id="metadata12">
    <rdf:RDF>
      <cc:Work
         rdf:about="">
        <dc:format>image/svg+xml</dc:format>
        <dc:type
           rdf:resource="http://purl.org/dc/dcmitype/StillImage" />
      </cc:Work>
    </rdf:RDF>
  </metadata>
  <defs
     id="defs10" />
  <sodipodi:namedview
     pagecolor="#ffffff"
     bordercolor="#666666"
     borderopacity="1"
     objecttolerance="10"
     gridtolerance="10"
     guidetolerance="10"
     inkscape:pageopacity="0"
     inkscape:pageshadow="2"
     inkscape:window-width="1169"
     inkscape:window-height="679"
     id="namedview8"
     showgrid="false"
     inkscape:zoom="9.8333333"
     inkscape:cx="-3.8135593"
     inkscape:cy="12"
     inkscape:window-x="57"
     inkscape:window-y="348"
     inkscape:window-maximized="0"
     inkscape:current-layer="svg6" />
  <path
     d="M0 0h24v24H0z"
     fill="none"
     id="path2" />
  <path
     d="M 12 4 L 10.589844 5.4101562 L 16.169922 11 L 4 11 L 4 13 L 16.169922 13 L 10.589844 18.589844 L 12 20 L 20 12 L 12 4 z "
     id="path4"
     style="opacity:0.99999999;fill:#147bb8;fill-opacity:1" />
  <path
     style="fill:#0074e4;fill-opacity:0;stroke-width:0.10169491"
     d="m 11.271691,19.236436 -0.634751,-0.63475 2.821527,-2.822877 2.821527,-2.822877 H 10.153556 4.0271186 v -0.966101 -0.966102 h 6.1264254 6.126425 l -2.794096,-2.7954829 -2.794097,-2.7954826 0.657481,-0.6633773 0.657481,-0.6633773 3.942397,3.941425 3.942397,3.9414251 -3.940192,3.941163 c -2.167106,2.167641 -3.963752,3.941164 -3.992546,3.941164 -0.02879,0 -0.337991,-0.285637 -0.687103,-0.63475 z"
     id="path14"
     inkscape:connector-curvature="0" />
  <path
     style="fill:#00a0f0;fill-opacity:0;stroke-width:0.10169491"
     d="m 11.271691,19.236436 -0.634751,-0.63475 2.821527,-2.822877 2.821527,-2.822877 H 10.153556 4.0271186 v -0.966101 -0.966102 h 6.1264254 6.126425 l -2.794096,-2.7954829 -2.794097,-2.7954826 0.657481,-0.6633773 0.657481,-0.6633773 3.942397,3.941425 3.942397,3.9414251 -3.940192,3.941163 c -2.167106,2.167641 -3.963752,3.941164 -3.992546,3.941164 -0.02879,0 -0.337991,-0.285637 -0.687103,-0.63475 z"
     id="path16"
     inkscape:connector-curvature="0" />
  <path
     style="fill:#00a0f0;fill-opacity:0;stroke-width:0.10169491"
     d="m 11.271691,19.236436 -0.634751,-0.63475 2.821527,-2.822877 2.821527,-2.822877 H 10.153556 4.0271186 v -0.966101 -0.966102 h 6.1264254 6.126425 l -2.794096,-2.7954829 -2.794097,-2.7954826 0.657481,-0.6633773 0.657481,-0.6633773 3.942397,3.941425 3.942397,3.9414251 -3.940192,3.941163 c -2.167106,2.167641 -3.963752,3.941164 -3.992546,3.941164 -0.02879,0 -0.337991,-0.285637 -0.687103,-0.63475 z"
     id="path18"
     inkscape:connector-curvature="0" />
  <path
     style="fill:#00a0f0;fill-opacity:0;stroke-width:0.10169491"
     d="m 11.271691,19.236436 -0.634751,-0.63475 2.821527,-2.822877 2.821527,-2.822877 H 10.153556 4.0271186 v -0.966101 -0.966102 h 6.1264254 6.126425 l -2.794096,-2.7954829 -2.794097,-2.7954826 0.657481,-0.6633773 0.657481,-0.6633773 3.942397,3.941425 3.942397,3.9414251 -3.940192,3.941163 c -2.167106,2.167641 -3.963752,3.941164 -3.992546,3.941164 -0.02879,0 -0.337991,-0.285637 -0.687103,-0.63475 z"
     id="path20"
     inkscape:connector-curvature="0" />
</svg>
